# Blender v3.0.0 OBJ File: ''
# www.blender.org
mtllib GiftBoxBody.mtl
o Christmas_Present_02_Mesh.009
v -0.000000 0.226707 1.363956
v 0.724862 0.095961 0.997688
v 1.172852 0.095961 0.381083
v 1.172852 0.095961 -0.381083
v 0.724862 0.095961 -0.997687
v 0.000000 0.095961 -1.233209
v -0.724862 0.095961 -0.997688
v -1.172852 0.095961 -0.381083
v -1.172852 0.095961 0.381083
v -0.801713 0.226707 1.103464
v -0.000000 2.746182 1.363956
v 0.801713 2.746182 1.103463
v 1.297199 2.746182 0.421486
v 1.297199 2.746182 -0.421486
v 0.801713 2.746182 -1.103464
v 0.000000 2.746182 -1.363956
v -0.801713 2.746182 -1.103464
v -1.297199 2.746182 -0.421486
v -1.297199 2.746182 0.421485
v -0.801713 2.746182 1.103464
v 0.000000 0.095961 0.000000
v -0.000000 2.746182 1.462972
v 0.859913 2.746182 1.183570
v 1.391370 2.746182 0.452083
v 1.391369 2.746182 -0.452083
v 0.859914 2.746182 -1.183570
v 0.000000 2.746182 -1.462973
v -0.859914 2.746182 -1.183570
v -1.391369 2.746182 -0.452084
v -1.391369 2.746182 0.452083
v -0.859913 2.746182 1.183570
v 0.859913 3.300896 1.183570
v 1.391370 3.300896 0.452083
v -0.000000 0.095961 1.233209
v 0.801713 0.226707 1.103464
v 1.297199 0.226707 0.421486
v 1.297199 0.226707 -0.421485
v 0.801713 0.226707 -1.103464
v 0.000000 0.226707 -1.363956
v -0.801713 0.226707 -1.103464
v -1.297199 0.226707 -0.421486
v -1.297199 0.226707 0.421486
v -0.724862 0.095961 0.997688
v 1.119051 2.746182 0.826897
v -0.334779 2.713012 1.435464
v 1.125641 3.300896 0.817827
v 0.859913 3.023539 1.183570
v 1.399406 0.190289 0.312292
v 1.394299 0.190289 -0.304453
v 1.362529 2.664600 -0.304542
v 1.367636 2.664600 0.312203
v -1.399406 0.190289 -0.312292
v -1.394299 0.190289 0.304453
v -1.362529 2.664600 0.304542
v -1.367636 2.664600 -0.312203
v 1.471446 2.679842 -0.326622
v 1.476924 2.679842 0.334896
v -1.471446 2.679842 0.326622
v -1.476924 2.679842 -0.334896
v 1.219662 -0.000420 0.282229
v 1.215045 -0.000420 -0.275396
v -1.219663 -0.000420 -0.282228
v -1.215045 -0.000420 0.275397
v 1.299656 0.226707 0.312012
v 1.294548 0.226707 -0.304733
v 1.294548 2.746182 -0.304733
v 1.299656 2.746182 0.312012
v -1.299656 0.226707 -0.312012
v -1.294548 0.226707 0.304733
v -1.294548 2.746182 0.304733
v -1.299656 2.746182 -0.312012
v 1.388527 2.746182 -0.326855
v 1.394004 2.746182 0.334663
v -1.388526 2.746182 0.326855
v -1.394004 2.746182 -0.334663
v 1.175073 0.095961 0.282103
v 1.170455 0.095961 -0.275521
v -1.175073 0.095961 -0.282103
v -1.170455 0.095961 0.275522
v 0.312292 0.190289 -1.399405
v -0.304452 0.190289 -1.394299
v -0.304542 2.664600 -1.362529
v 0.312203 2.664600 -1.367636
v -0.312292 0.190289 1.399406
v 0.304453 0.190289 1.394299
v 0.304542 2.664600 1.362529
v -0.312203 2.664600 1.367636
v 0.334896 2.679842 -1.476924
v 0.326622 2.679842 1.471447
v -0.334896 2.679842 1.476924
v 0.282229 -0.000420 -1.219662
v -0.275396 -0.000420 -1.215045
v -0.282229 -0.000420 1.219663
v 0.275396 -0.000420 1.215045
v -0.304732 2.746182 -1.294549
v -0.304732 0.226707 -1.294548
v 0.312012 0.226707 -1.299656
v 0.312012 2.746182 -1.299656
v 0.304733 2.746182 1.294548
v 0.304733 0.226707 1.294548
v -0.312012 0.226707 1.299656
v -0.312012 2.746182 1.299656
v 0.326855 2.746182 1.388527
v -0.334663 2.746182 1.394004
v -0.275521 0.095961 -1.170455
v 0.282103 0.095961 -1.175073
v 0.275521 0.095961 1.170456
v -0.282104 0.095961 1.175073
v 1.078556 2.746182 0.802528
v 1.391369 3.023539 0.000000
v 1.255211 2.746182 0.639490
v 0.859913 2.884861 1.183570
v 1.258505 3.300896 0.634955
v 0.859913 2.954200 1.183570
v 1.192073 3.300896 0.726391
v 1.297199 2.746182 0.421486
v 0.859913 2.746182 1.183570
v 1.391369 2.746182 -0.452083
v 1.391370 3.300896 0.452083
v 1.391369 3.023539 0.000000
v 1.078556 2.746182 0.802528
v 0.859913 2.884861 1.183570
v 1.258505 3.300896 0.634955
v 1.125641 3.300896 0.817827
v 0.859913 3.300896 1.183570
v 0.859913 3.023539 1.183570
v 1.192073 3.300896 0.726391
v 0.859913 2.954200 1.183570
v -0.004137 2.679842 1.474185
vt 0.596005 0.006626
vt 0.564346 0.324311
vt 0.564346 0.006626
vt 0.627664 0.006626
vt 0.596005 0.324311
vt 0.659323 0.006626
vt 0.627664 0.324311
vt 0.374393 0.006626
vt 0.342734 0.324311
vt 0.342734 0.006626
vt 0.406052 0.006626
vt 0.374393 0.324311
vt 0.437711 0.006626
vt 0.406052 0.324311
vt 0.469370 0.006626
vt 0.437711 0.324311
vt 0.501028 0.006626
vt 0.469370 0.324311
vt 0.532687 0.006626
vt 0.501028 0.324311
vt 0.532687 0.324311
vt 0.642391 0.060474
vt 0.627764 0.071101
vt 0.618724 0.043279
vt 0.609684 0.071101
vt 0.595057 0.060474
vt 0.589470 0.043279
vt 0.595057 0.026085
vt 0.609684 0.015458
vt 0.627764 0.015458
vt 0.642391 0.026085
vt 0.647978 0.043279
vt 0.564346 0.324311
vt 0.611835 0.324311
vt 0.596005 0.324311
vt 0.627664 0.324311
vt 0.659323 0.324311
vt 0.627664 0.324311
vt 0.342734 0.324311
vt 0.406052 0.324311
vt 0.374393 0.324311
vt 0.469370 0.324311
vt 0.437711 0.324311
vt 0.501028 0.324311
vt 0.532687 0.324311
vt 0.646165 0.023850
vt 0.652345 0.042868
vt 0.645682 0.023185
vt 0.629504 0.011431
vt 0.628722 0.011177
vt 0.608726 0.011177
vt 0.607944 0.011431
vt 0.591766 0.023185
vt 0.591283 0.023850
vt 0.585103 0.042868
vt 0.591283 0.062709
vt 0.585103 0.043691
vt 0.607944 0.075128
vt 0.591766 0.063374
vt 0.628722 0.075382
vt 0.608726 0.075382
vt 0.629504 0.075128
vt 0.645682 0.063374
vt 0.652345 0.043691
vt 0.646165 0.062709
vt 0.659323 0.324311
vt 0.820717 0.902427
vt 0.840558 0.956868
vt 0.840544 0.902427
vt 0.841692 0.902427
vt 0.821851 0.956868
vt 0.821864 0.902427
vt 0.841085 0.934676
vt 0.819376 0.936956
vt 0.841796 0.937339
vt 0.819719 0.935269
vt 0.842327 0.932895
vt 0.818978 0.932495
vt 0.838828 0.966668
vt 0.818850 0.970688
vt 0.839752 0.971046
vt 0.820983 0.907197
vt 0.840962 0.903177
vt 0.820059 0.902820
vt 0.820758 0.903229
vt 0.840585 0.958663
vt 0.820758 0.958663
vt 0.841651 0.903229
vt 0.821823 0.958663
vt 0.841651 0.958663
vt 0.819412 0.934942
vt 0.841114 0.933024
vt 0.841832 0.935325
vt 0.842290 0.934992
vt 0.819688 0.936989
vt 0.818941 0.934593
vt 0.838848 0.965585
vt 0.818893 0.968265
vt 0.819948 0.965262
vt 0.820964 0.908281
vt 0.840918 0.905600
vt 0.839863 0.908604
vt 0.820717 0.902427
vt 0.840558 0.956868
vt 0.840544 0.902427
vt 0.841692 0.902427
vt 0.821851 0.956868
vt 0.821864 0.902427
vt 0.819719 0.935269
vt 0.842327 0.932895
vt 0.830653 0.932695
vt 0.818978 0.932495
vt 0.838828 0.966668
vt 0.818850 0.970688
vt 0.839752 0.971046
vt 0.820983 0.907197
vt 0.840962 0.903177
vt 0.820059 0.902820
vt 0.820758 0.903229
vt 0.840585 0.958663
vt 0.820758 0.958663
vt 0.841651 0.903229
vt 0.821823 0.958663
vt 0.841651 0.958663
vt 0.842290 0.934992
vt 0.819688 0.936989
vt 0.818941 0.934593
vt 0.838848 0.965585
vt 0.818893 0.968265
vt 0.819948 0.965262
vt 0.820964 0.908281
vt 0.840918 0.905600
vt 0.839863 0.908604
vt 0.659323 0.324311
vt 0.611835 0.324311
vt 0.619553 0.324311
vt 0.611442 0.324311
vt 0.596005 0.324311
vt 0.820730 0.956868
vt 0.841679 0.956868
vt 0.820182 0.934318
vt 0.841488 0.935641
vt 0.819929 0.966345
vt 0.839882 0.907521
vt 0.840585 0.903229
vt 0.821823 0.903229
vt 0.820211 0.932667
vt 0.841457 0.937361
vt 0.839796 0.968623
vt 0.820016 0.905243
vt 0.820730 0.956868
vt 0.841679 0.956868
vt 0.841488 0.935641
vt 0.819929 0.966345
vt 0.839882 0.907521
vt 0.840585 0.903229
vt 0.821823 0.903229
vt 0.841457 0.937361
vt 0.839796 0.968623
vt 0.820016 0.905243
vt 0.800659 0.956521
vt 0.802331 0.905563
vt 0.802331 0.958226
vt 0.800297 0.956521
vt 0.801969 0.905563
vt 0.799515 0.904802
vt 0.867465 0.956521
vt 0.865793 0.905563
vt 0.865793 0.958226
vt 0.867827 0.956521
vt 0.866155 0.905563
vt 0.868609 0.904802
vt 0.800028 0.958226
vt 0.797988 0.956840
vt 0.799640 0.958226
vt 0.801969 0.958226
vt 0.868096 0.958226
vt 0.870136 0.956840
vt 0.868484 0.958226
vt 0.866155 0.958226
vt 0.803949 0.900816
vt 0.805046 0.902830
vt 0.804276 0.900816
vt 0.799877 0.904802
vt 0.864175 0.900816
vt 0.863078 0.902830
vt 0.863848 0.900816
vt 0.868247 0.904802
vt 0.805373 0.902830
vt 0.862751 0.902830
vt 0.800297 0.956521
vt 0.801969 0.905563
vt 0.799515 0.904802
vt 0.867465 0.956521
vt 0.865793 0.905563
vt 0.865793 0.958226
vt 0.867827 0.956521
vt 0.866155 0.905563
vt 0.868609 0.904802
vt 0.868096 0.958226
vt 0.870136 0.956840
vt 0.868484 0.958226
vt 0.866155 0.958226
vt 0.803949 0.900816
vt 0.805046 0.902830
vt 0.804276 0.900816
vt 0.802331 0.905563
vt 0.799877 0.904802
vt 0.864175 0.900816
vt 0.863078 0.902830
vt 0.863848 0.900816
vt 0.868247 0.904802
vt 0.805373 0.902830
vt 0.862751 0.902830
vt 0.797600 0.956840
vt 0.870524 0.956840
vt 0.800659 0.956521
vt 0.801969 0.958226
vt 0.870524 0.956840
vt 0.869504 0.957533
vn 0.3090 0.0000 0.9511
vn 0.8090 0.0000 0.5878
vn 1.0000 -0.0000 0.0000
vn 0.8090 -0.0000 -0.5878
vn 0.3090 -0.0000 -0.9511
vn -0.3090 -0.0000 -0.9511
vn -0.8090 -0.0000 -0.5878
vn -1.0000 0.0000 -0.0000
vn -0.8090 -0.0000 0.5878
vn -0.3090 0.0000 0.9511
vn 0.0000 -1.0000 0.0000
vn 0.2239 -0.6892 0.6892
vn 0.5862 -0.6892 0.4259
vn 0.7246 -0.6892 0.0000
vn 0.5862 -0.6892 -0.4259
vn 0.2239 -0.6892 -0.6892
vn -0.2239 -0.6892 -0.6892
vn -0.5862 -0.6892 -0.4259
vn -0.7246 -0.6892 -0.0000
vn -0.5862 -0.6892 0.4259
vn -0.2239 -0.6892 0.6892
vn 0.0000 0.0000 1.0000
vn 0.9999 0.0128 -0.0083
vn -0.9999 0.0128 0.0083
vn 0.1384 -0.9904 -0.0011
vn -0.1384 -0.9904 0.0011
vn 0.7282 -0.6854 -0.0060
vn -0.7282 -0.6854 0.0060
vn -1.0000 0.0000 0.0083
vn 1.0000 0.0000 -0.0083
vn 0.0000 1.0000 0.0000
vn -0.7246 0.6891 0.0060
vn 0.7246 0.6891 -0.0060
vn -0.0083 0.0128 -0.9999
vn 0.0083 0.0128 0.9999
vn 0.0011 -0.9904 0.1384
vn -0.0060 -0.6854 -0.7282
vn 0.0060 -0.6854 0.7282
vn 0.0083 0.0000 1.0000
vn -0.0083 -0.0000 -1.0000
vn 0.0060 0.6891 0.7246
vn -0.0060 0.6891 -0.7246
vn -0.0893 -0.0937 -0.9916
vn -0.0310 -0.0538 -0.9981
vn -0.1271 -0.1082 -0.9860
vn -0.0946 -0.0933 0.9911
vn -0.0365 -0.0537 0.9979
vn -0.0234 -0.0564 0.9981
vn 0.0893 -0.0937 0.9916
vn 0.0310 -0.0538 0.9981
vn 0.1271 -0.1082 0.9860
vn 0.0946 -0.0933 -0.9911
vn 0.0365 -0.0537 -0.9979
vn 0.0234 -0.0564 -0.9981
vn -0.1014 -0.1052 -0.9893
vn -0.0780 -0.1009 -0.9918
vn -0.1064 -0.1048 0.9888
vn -0.1319 -0.1076 0.9854
vn 0.1014 -0.1053 0.9893
vn 0.0780 -0.1009 0.9918
vn 0.1065 -0.1049 -0.9888
vn 0.1319 -0.1076 -0.9854
vn -0.0764 -0.0409 0.9962
vn -0.1135 -0.0224 0.9933
vn -0.0715 -0.0405 -0.9966
vn -0.0178 -0.0565 -0.9982
vn 0.0764 -0.0409 -0.9962
vn 0.1134 -0.0224 -0.9933
vn 0.0715 -0.0405 0.9966
vn 0.0178 -0.0565 0.9982
vn -0.0432 -0.0500 -0.9978
vn 0.0470 -0.0481 -0.9977
vn -0.0415 -0.0482 -0.9980
vn -0.0488 -0.0499 0.9976
vn 0.0415 -0.0482 0.9980
vn 0.0432 -0.0500 0.9978
vn 0.9911 -0.0933 0.0946
vn 0.9979 -0.0537 0.0365
vn 0.9981 -0.0564 0.0234
vn 0.9916 -0.0937 -0.0893
vn 0.9981 -0.0538 -0.0310
vn 0.9860 -0.1082 -0.1271
vn -0.9911 -0.0933 -0.0946
vn -0.9979 -0.0537 -0.0365
vn -0.9981 -0.0564 -0.0234
vn 0.9893 -0.1052 -0.1014
vn 0.9918 -0.1009 -0.0780
vn -0.9888 -0.1048 -0.1064
vn -0.9854 -0.1076 -0.1319
vn 0.9962 -0.0409 0.0764
vn 0.9933 -0.0224 0.1135
vn -0.9966 -0.0405 0.0715
vn -0.9981 -0.0537 0.0310
vn -0.9982 -0.0565 0.0178
vn -0.9962 -0.0409 -0.0764
vn -0.9933 -0.0224 -0.1135
vn 0.9966 -0.0405 -0.0715
vn 0.9982 -0.0565 -0.0178
vn -0.9978 -0.0500 0.0432
vn -0.9977 -0.0481 -0.0470
vn -0.9980 -0.0482 0.0415
vn 0.9978 -0.0500 -0.0432
vn 0.9977 -0.0481 0.0470
vn 0.9980 -0.0482 -0.0415
vn -0.0832 -0.1005 0.9915
vn 0.0832 -0.1005 -0.9915
vn -0.1084 -0.0225 -0.9939
vn 0.1084 -0.0225 0.9939
vn 0.0488 -0.0499 -0.9976
vn -0.0470 -0.0481 0.9977
vn -0.9916 -0.0937 0.0893
vn 0.9854 -0.1076 0.1319
vn -0.9915 -0.1005 -0.0832
vn -0.9905 -0.1059 -0.0875
vn -0.9939 -0.0225 0.1084
vn 0.9939 -0.0225 -0.1084
vn -0.9976 -0.0499 -0.0488
vn 0.9976 -0.0499 0.0488
usemtl Christmas_Tree
s off
f 35/1/1 11/2/1 1/3/1
f 36/4/2 12/5/2 35/1/2
f 37/6/3 13/7/3 36/4/3
f 38/8/4 14/9/4 37/10/4
f 39/11/5 15/12/5 38/8/5
f 40/13/6 16/14/6 39/11/6
f 41/15/7 17/16/7 40/13/7
f 42/17/8 18/18/8 41/15/8
f 10/19/9 19/20/9 42/17/9
f 1/3/10 20/21/10 10/19/10
f 43/22/11 9/23/11 21/24/11
f 9/23/11 8/25/11 21/24/11
f 8/25/11 7/26/11 21/24/11
f 7/26/11 6/27/11 21/24/11
f 6/27/11 5/28/11 21/24/11
f 5/28/11 4/29/11 21/24/11
f 4/29/11 3/30/11 21/24/11
f 3/30/11 2/31/11 21/24/11
f 2/31/11 34/32/11 21/24/11
f 34/32/11 43/22/11 21/24/11
f 12/5/11 22/33/11 11/2/11
f 13/7/11 109/34/11 23/35/11 12/5/11
f 116/36/11 118/37/11 24/38/11
f 15/12/11 25/39/11 14/9/11
f 15/12/11 27/40/11 26/41/11
f 17/16/11 27/40/11 16/14/11
f 17/16/11 29/42/11 28/43/11
f 18/18/11 30/44/11 29/42/11
f 20/21/11 30/44/11 19/20/11
f 20/21/11 22/33/11 31/45/11
f 34/32/12 35/46/12 1/47/12
f 35/48/13 3/30/13 36/49/13
f 36/50/14 4/29/14 37/51/14
f 37/52/15 5/28/15 38/53/15
f 38/54/16 6/27/16 39/55/16
f 6/27/17 40/56/17 39/57/17
f 7/26/18 41/58/18 40/59/18
f 8/25/19 42/60/19 41/61/19
f 42/62/20 43/22/20 10/63/20
f 43/22/21 1/64/21 10/65/21
f 13/7/22 25/66/22 118/37/22 116/36/22
f 49/67/23 51/68/23 48/69/23
f 53/70/24 55/71/24 52/72/24
f 51/73/25 56/74/25 57/75/25
f 55/76/26 58/77/26 59/78/26
f 60/79/27 49/80/27 48/81/27
f 62/82/28 53/83/28 52/84/28
f 65/85/29 67/86/29 66/87/29
f 69/88/30 71/89/30 70/90/30
f 72/91/31 67/92/31 73/93/31
f 74/94/31 71/95/31 75/96/31
f 76/97/32 65/98/32 77/99/32
f 78/100/33 69/101/33 79/102/33
f 81/103/34 83/104/34 80/105/34
f 85/106/35 87/107/35 84/108/35
f 87/109/36 89/110/36 129/111/36 90/112/36
f 91/113/37 81/114/37 80/115/37
f 93/116/38 85/117/38 84/118/38
f 96/119/39 98/120/39 95/121/39
f 100/122/40 102/123/40 99/124/40
f 103/125/31 102/126/31 104/127/31
f 106/128/41 96/129/41 105/130/41
f 108/131/42 100/132/42 107/133/42
f 35/1/1 12/5/1 11/2/1
f 36/4/2 13/7/2 12/5/2
f 37/6/3 14/134/3 13/7/3
f 38/8/4 15/12/4 14/9/4
f 39/11/5 16/14/5 15/12/5
f 40/13/6 17/16/6 16/14/6
f 41/15/7 18/18/7 17/16/7
f 42/17/8 19/20/8 18/18/8
f 10/19/9 20/21/9 19/20/9
f 1/3/10 11/2/10 20/21/10
f 12/5/11 23/35/11 22/33/11
f 121/135/11 111/136/11 44/137/11 117/138/11
f 13/7/11 14/134/11 25/66/11
f 15/12/11 26/41/11 25/39/11
f 15/12/11 16/14/11 27/40/11
f 17/16/11 28/43/11 27/40/11
f 17/16/11 18/18/11 29/42/11
f 18/18/11 19/20/11 30/44/11
f 20/21/11 31/45/11 30/44/11
f 20/21/11 11/2/11 22/33/11
f 34/32/12 2/31/12 35/46/12
f 35/48/13 2/31/13 3/30/13
f 36/50/14 3/30/14 4/29/14
f 37/52/15 4/29/15 5/28/15
f 38/54/16 5/28/16 6/27/16
f 6/27/17 7/26/17 40/56/17
f 7/26/18 8/25/18 41/58/18
f 8/25/19 9/23/19 42/60/19
f 42/62/20 9/23/20 43/22/20
f 43/22/21 34/32/21 1/64/21
f 116/36/11 24/38/11 111/136/11 121/135/11
f 109/34/22 121/135/22 117/138/22 23/35/22
f 13/7/22 116/36/22 121/135/22 109/34/22
f 49/67/23 50/139/23 51/68/23
f 53/70/24 54/140/24 55/71/24
f 51/73/25 50/141/25 56/74/25
f 55/76/26 54/142/26 58/77/26
f 60/79/27 61/143/27 49/80/27
f 62/82/28 63/144/28 53/83/28
f 65/85/29 64/145/29 67/86/29
f 69/88/30 68/146/30 71/89/30
f 72/91/31 66/147/31 67/92/31
f 74/94/31 70/148/31 71/95/31
f 76/97/32 64/149/32 65/98/32
f 78/100/33 68/150/33 69/101/33
f 81/103/34 82/151/34 83/104/34
f 85/106/35 86/152/35 87/107/35
f 87/109/36 86/153/36 89/110/36
f 91/113/37 92/154/37 81/114/37
f 93/116/38 94/155/38 85/117/38
f 96/119/39 97/156/39 98/120/39
f 100/122/40 101/157/40 102/123/40
f 103/125/31 99/158/31 102/126/31
f 106/128/41 97/159/41 96/129/41
f 108/131/42 101/160/42 100/132/42
s 1
f 61/143/11 63/144/11 62/82/11
f 77/99/31 79/102/31 76/97/31
f 50/161/43 65/162/44 66/163/45
f 51/164/46 64/165/47 48/166/48
f 54/167/49 69/168/50 70/169/51
f 55/170/52 68/171/53 52/172/54
f 50/161/43 72/173/55 56/174/56
f 51/164/46 73/175/57 67/176/58
f 54/167/49 74/177/59 58/178/60
f 55/170/52 75/179/61 71/180/62
f 60/181/63 64/165/47 76/182/64
f 61/183/65 65/162/44 49/184/66
f 62/185/67 68/171/53 78/186/68
f 63/187/69 69/168/50 53/188/70
f 61/183/71 78/186/72 77/189/73
f 60/181/74 79/190/75 63/187/76
f 92/154/11 94/155/11 93/116/11
f 105/130/31 107/133/31 106/128/31
f 83/191/77 97/192/78 80/193/79
f 86/194/80 100/195/81 99/196/82
f 87/197/83 101/198/84 84/199/85
f 86/194/80 103/200/86 89/201/87
f 87/197/83 104/202/88 102/203/89
f 91/204/90 97/192/78 106/205/91
f 92/206/92 96/207/93 81/208/94
f 93/209/95 101/198/84 108/210/96
f 94/211/97 100/195/81 85/212/98
f 92/206/99 108/210/100 105/213/101
f 94/211/102 106/205/103 107/214/104
f 61/143/11 60/79/11 63/144/11
f 77/99/31 78/100/31 79/102/31
f 50/161/43 49/184/66 65/162/44
f 51/164/46 67/176/58 64/165/47
f 54/167/49 53/188/70 69/168/50
f 55/170/52 71/180/62 68/171/53
f 50/161/43 66/163/45 72/173/55
f 51/164/46 57/215/105 73/175/57
f 54/167/49 70/169/51 74/177/59
f 55/170/52 59/216/106 75/179/61
f 60/181/63 48/166/48 64/165/47
f 61/183/65 77/189/107 65/162/44
f 62/185/67 52/172/54 68/171/53
f 63/187/69 79/190/108 69/168/50
f 61/183/71 62/185/109 78/186/72
f 60/181/74 76/182/110 79/190/75
f 92/154/11 91/113/11 94/155/11
f 105/130/31 108/131/31 107/133/31
f 82/217/111 81/208/94 96/207/93
f 83/191/77 98/218/112 97/192/78
f 86/194/80 85/212/98 100/195/81
f 87/197/83 102/203/89 101/198/84
f 86/194/80 99/196/82 103/200/86
f 87/197/83 90/219/113 45/220/114 104/202/88
f 91/204/90 80/193/79 97/192/78
f 92/206/92 105/213/115 96/207/93
f 93/209/95 84/199/85 101/198/84
f 94/211/97 107/214/116 100/195/81
f 92/206/99 93/209/117 108/210/100
f 94/211/102 91/204/118 106/205/103
l 119 33
l 88 83
l 122 112
l 126 47
l 128 114
l 110 120
l 113 123
l 46 124
l 32 125
l 115 127
