# Blender v3.0.0 OBJ File: ''
# www.blender.org
mtllib GiftBoxCover.mtl
o Christmas_Present_02_Mesh.009
v -0.000000 2.746182 1.363956
v 0.801713 2.746182 1.103464
v 1.297199 2.746182 0.421486
v 1.297199 2.746182 -0.421485
v 0.801713 2.746182 -1.103464
v 0.000000 2.746182 -1.363956
v -0.801713 2.746182 -1.103464
v -1.297199 2.746182 -0.421486
v -1.297199 2.746182 0.421486
v -0.801713 2.746182 1.103464
v -0.000000 2.746182 1.462973
v 0.859913 2.746182 1.183570
v 1.391370 2.746182 0.452084
v 1.391369 2.746182 -0.452083
v 0.859914 2.746182 -1.183570
v 0.000000 2.746182 -1.462973
v -0.859914 2.746182 -1.183570
v -1.391369 2.746182 -0.452084
v -1.391369 2.746182 0.452083
v -0.859913 2.746182 1.183570
v -0.000000 3.300896 1.462973
v 0.859913 3.300896 1.183570
v 1.391370 3.300896 0.452084
v 1.391369 3.300896 -0.452083
v 0.859914 3.300896 -1.183570
v 0.000000 3.300896 -1.462973
v -0.859914 3.300896 -1.183570
v -1.391369 3.300896 -0.452084
v -1.391369 3.300896 0.452083
v -0.859913 3.300896 1.183570
v 0.000000 3.431643 0.000000
v -0.000000 3.431643 1.332226
v 0.783063 3.431643 1.077794
v 1.267022 3.431643 0.411681
v 1.267022 3.431643 -0.411680
v 0.783063 3.431643 -1.077794
v 0.000000 3.431643 -1.332226
v -0.783063 3.431643 -1.077794
v -1.267022 3.431643 -0.411681
v -1.267022 3.431643 0.411680
v -0.783063 3.431643 1.077794
v -0.926604 3.430032 -0.312476
v -1.198641 3.765250 -0.312477
v -1.096173 3.771437 -0.312477
v -0.875348 3.519670 -0.312477
v -1.096173 3.771437 0.285730
v -0.875350 3.519670 0.285730
v -1.198642 3.765250 0.285730
v -0.926603 3.430032 0.285730
v -0.209863 3.518393 -0.312476
v 0.006091 3.447712 -0.312476
v -0.209863 3.518393 0.285730
v 0.006090 3.447712 0.285730
v -0.579890 4.173563 -0.312477
v -0.615611 4.076681 -0.312477
v -0.950418 4.084009 -0.312476
v -1.011543 4.166481 -0.312477
v -0.615610 4.076681 0.285730
v -0.950419 4.084009 0.285730
v -0.579890 4.173563 0.285730
v -1.011544 4.166481 0.285730
v -0.378322 3.737710 -0.312476
v -0.470472 3.716497 -0.312477
v -0.470472 3.716497 0.285730
v -0.378322 3.737710 0.285730
v 0.162002 3.658852 -0.412324
v -0.123522 3.658852 -0.412324
v -0.123523 3.658852 0.384395
v 0.162002 3.658852 0.384396
v -0.123523 3.358244 0.384395
v -0.123522 3.358244 -0.412324
v 0.162002 3.358244 -0.412324
v 0.162002 3.358244 0.384396
v -0.177581 3.609945 0.336170
v -0.177581 3.609945 -0.364099
v -0.177581 3.407152 -0.364099
v -0.177581 3.407152 0.336170
v 0.216061 3.609945 -0.364099
v 0.216060 3.609945 0.336170
v 0.216060 3.407152 0.336170
v 0.216061 3.407152 -0.364099
v 0.950127 3.430032 0.285730
v 1.222164 3.765250 0.285731
v 1.119697 3.771437 0.285731
v 0.898872 3.519670 0.285731
v 1.119695 3.771437 -0.312476
v 0.898872 3.519670 -0.312476
v 1.222166 3.765250 -0.312476
v 0.950128 3.430032 -0.312476
v 0.233385 3.518393 0.285730
v 0.017432 3.447712 0.285730
v 0.233387 3.518393 -0.312476
v 0.017432 3.447712 -0.312476
v 0.603413 4.173563 0.285730
v 0.639134 4.076681 0.285730
v 0.973942 4.084009 0.285731
v 1.035067 4.166481 0.285731
v 0.639134 4.076681 -0.312476
v 0.973942 4.084009 -0.312476
v 0.603413 4.173563 -0.312475
v 1.035067 4.166481 -0.312476
v 0.401845 3.737710 0.285730
v 0.493995 3.716497 0.285730
v 0.493995 3.716497 -0.312476
v 0.401844 3.737710 -0.312476
v 1.362529 2.664600 -0.304542
v 1.367636 2.664600 0.312203
v -1.362529 2.664600 0.304542
v -1.367636 2.664600 -0.312203
v 1.471446 2.679842 -0.326622
v 1.476924 2.679842 0.334896
v -1.471446 2.679842 0.326622
v -1.476924 2.679842 -0.334896
v 1.488277 3.337315 -0.326575
v 1.493754 3.337315 0.334943
v -1.488276 3.337315 0.326575
v -1.493754 3.337315 -0.334943
v 1.309023 3.528024 -0.297518
v 1.314011 3.528024 0.304879
v -1.309023 3.528024 0.297519
v -1.314011 3.528024 -0.304879
v 1.294548 2.746182 -0.304733
v 1.299656 2.746182 0.312012
v -1.294548 2.746182 0.304733
v -1.299656 2.746182 -0.312012
v 1.388527 2.746182 -0.326855
v 1.394004 2.746182 0.334663
v -1.388526 2.746182 0.326855
v -1.394004 2.746182 -0.334663
v 1.388527 3.300896 -0.326855
v 1.394004 3.300896 0.334663
v -1.388526 3.300896 0.326855
v -1.394004 3.300896 -0.334663
v 1.264434 3.431643 -0.297644
v 1.269422 3.431643 0.304754
v -1.264434 3.431643 0.297644
v -1.269422 3.431643 -0.304754
v -0.304542 2.664600 -1.362529
v 0.312203 2.664600 -1.367636
v 0.304542 2.664600 1.362529
v -0.312203 2.664600 1.367637
v -0.326622 2.679842 -1.471446
v 0.334896 2.679842 -1.476924
v 0.326622 2.679842 1.471447
v -0.334896 2.679842 1.476924
v -0.326575 3.337315 -1.488276
v 0.334943 3.337315 -1.493754
v 0.326575 3.337315 1.488276
v -0.334943 3.337315 1.493755
v -0.297518 3.528024 -1.309023
v 0.304879 3.528024 -1.314011
v 0.297518 3.528024 1.309023
v -0.304879 3.528024 1.314011
v -0.304732 2.746182 -1.294548
v 0.312012 2.746182 -1.299656
v 0.304733 2.746182 1.294548
v -0.312012 2.746182 1.299656
v -0.326855 2.746182 -1.388526
v 0.334663 2.746182 -1.394004
v 0.326855 2.746182 1.388527
v -0.334663 2.746182 1.394005
v -0.326855 3.300897 -1.388526
v 0.334663 3.300897 -1.394004
v 0.326855 3.300897 1.388527
v -0.334663 3.300897 1.394005
v 0.304754 3.431643 -1.269421
v -0.297644 3.431643 -1.264434
v -0.304754 3.431643 1.269422
v 0.297644 3.431643 1.264434
vt 0.564346 0.324311
vt 0.596005 0.324311
vt 0.596005 0.324311
vt 0.564346 0.324311
vt 0.374393 0.324311
vt 0.406052 0.324311
vt 0.406052 0.324311
vt 0.374393 0.324311
vt 0.565498 0.258036
vt 0.597356 0.258036
vt 0.597356 0.322570
vt 0.565498 0.322571
vt 0.629213 0.258035
vt 0.629213 0.322567
vt 0.661069 0.258032
vt 0.661070 0.322564
vt 0.342489 0.258027
vt 0.374348 0.258026
vt 0.374348 0.322563
vt 0.342489 0.322564
vt 0.406207 0.258026
vt 0.406207 0.322562
vt 0.438065 0.258026
vt 0.438065 0.322563
vt 0.469924 0.258029
vt 0.469924 0.322565
vt 0.501782 0.258032
vt 0.501782 0.322567
vt 0.533641 0.258035
vt 0.533640 0.322570
vt 0.639973 0.311712
vt 0.625243 0.322966
vt 0.616139 0.293504
vt 0.607035 0.322966
vt 0.592304 0.311712
vt 0.586678 0.293504
vt 0.592304 0.275296
vt 0.607035 0.264043
vt 0.625243 0.264043
vt 0.639973 0.275297
vt 0.645600 0.293504
vt 0.642312 0.313499
vt 0.648491 0.293504
vt 0.626136 0.325857
vt 0.606141 0.325857
vt 0.589965 0.313499
vt 0.583786 0.293504
vt 0.589965 0.273510
vt 0.606141 0.261152
vt 0.626136 0.261152
vt 0.642312 0.273510
vt 0.886640 0.956036
vt 0.863815 0.987434
vt 0.857903 0.980134
vt 0.874203 0.955342
vt 0.874203 0.888274
vt 0.857903 0.888274
vt 0.857903 0.987434
vt 0.874203 0.987434
vt 0.874203 0.955342
vt 0.857903 0.980134
vt 0.863815 0.987434
vt 0.886640 0.956036
vt 0.886640 0.987434
vt 0.863815 0.888274
vt 0.886640 0.888274
vt 0.837060 0.901800
vt 0.837060 0.888274
vt 0.837060 0.987434
vt 0.837060 0.888274
vt 0.837060 0.888274
vt 0.837060 0.901800
vt 0.837060 0.987434
vt 0.787480 0.956036
vt 0.799918 0.955342
vt 0.816217 0.980134
vt 0.810306 0.987434
vt 0.799918 0.888274
vt 0.799918 0.987434
vt 0.816217 0.987434
vt 0.816217 0.888274
vt 0.799918 0.955342
vt 0.787480 0.956036
vt 0.810306 0.987434
vt 0.816217 0.980134
vt 0.787480 0.987434
vt 0.787480 0.888274
vt 0.810306 0.888274
vt 0.812270 0.922155
vt 0.818489 0.928571
vt 0.818489 0.888274
vt 0.818489 0.987434
vt 0.818489 0.928571
vt 0.812270 0.922155
vt 0.812270 0.987434
vt 0.812270 0.888274
vt 0.886640 0.956036
vt 0.863815 0.987434
vt 0.857903 0.980134
vt 0.874203 0.955342
vt 0.874203 0.888274
vt 0.857903 0.888274
vt 0.857903 0.987434
vt 0.874203 0.987434
vt 0.874203 0.955342
vt 0.857903 0.980134
vt 0.863815 0.987434
vt 0.886640 0.956036
vt 0.886640 0.987434
vt 0.863815 0.888274
vt 0.886640 0.888274
vt 0.837060 0.901800
vt 0.837060 0.888274
vt 0.837060 0.987434
vt 0.837060 0.888274
vt 0.837060 0.888274
vt 0.837060 0.901800
vt 0.837060 0.987434
vt 0.787480 0.956036
vt 0.799918 0.955342
vt 0.816217 0.980134
vt 0.810306 0.987434
vt 0.799918 0.888274
vt 0.799918 0.987434
vt 0.816217 0.987434
vt 0.816217 0.888274
vt 0.799918 0.955342
vt 0.787480 0.956036
vt 0.810306 0.987434
vt 0.816217 0.980134
vt 0.787480 0.987434
vt 0.787480 0.888274
vt 0.810306 0.888274
vt 0.812270 0.922155
vt 0.818489 0.928571
vt 0.818489 0.888274
vt 0.818489 0.987434
vt 0.818489 0.928571
vt 0.812270 0.922155
vt 0.812270 0.987434
vt 0.812270 0.888274
vt 0.841232 0.957204
vt 0.819965 0.957204
vt 0.819958 0.971670
vt 0.841226 0.971670
vt 0.821176 0.957204
vt 0.842443 0.957204
vt 0.842450 0.971670
vt 0.821183 0.971670
vt 0.818050 0.972963
vt 0.819130 0.968619
vt 0.839546 0.968969
vt 0.840470 0.973346
vt 0.841761 0.900903
vt 0.840682 0.905246
vt 0.820265 0.904897
vt 0.819341 0.900519
vt 0.819999 0.970868
vt 0.819999 0.958663
vt 0.841266 0.958663
vt 0.841266 0.970868
vt 0.842409 0.970868
vt 0.842409 0.958663
vt 0.821142 0.958663
vt 0.821142 0.970868
vt 0.839565 0.967885
vt 0.819149 0.967536
vt 0.818093 0.970540
vt 0.840514 0.970923
vt 0.820246 0.905980
vt 0.840662 0.906329
vt 0.841718 0.903326
vt 0.819298 0.902942
vt 0.819719 0.935269
vt 0.841488 0.935641
vt 0.842327 0.932895
vt 0.818978 0.932495
vt 0.841232 0.957204
vt 0.819965 0.957204
vt 0.819958 0.971670
vt 0.841226 0.971670
vt 0.821176 0.957204
vt 0.842443 0.957204
vt 0.842450 0.971670
vt 0.821183 0.971670
vt 0.818050 0.972963
vt 0.819130 0.968619
vt 0.839546 0.968969
vt 0.840470 0.973346
vt 0.841761 0.900903
vt 0.840682 0.905246
vt 0.820265 0.904897
vt 0.819341 0.900519
vt 0.819412 0.934942
vt 0.820211 0.932667
vt 0.841114 0.933024
vt 0.841832 0.935325
vt 0.842290 0.934992
vt 0.841457 0.937361
vt 0.819688 0.936989
vt 0.818941 0.934593
vt 0.819999 0.970868
vt 0.819999 0.958663
vt 0.841266 0.958663
vt 0.841266 0.970868
vt 0.842409 0.970868
vt 0.842409 0.958663
vt 0.821142 0.958663
vt 0.821142 0.970868
vt 0.839565 0.967885
vt 0.819149 0.967536
vt 0.818093 0.970540
vt 0.840514 0.970923
vt 0.820246 0.905980
vt 0.840662 0.906329
vt 0.841718 0.903326
vt 0.819298 0.902942
vt 0.864880 0.907655
vt 0.864880 0.964623
vt 0.807911 0.964623
vt 0.807911 0.907655
vt 0.807911 0.964623
vt 0.864880 0.964623
vt 0.864880 0.907655
vt 0.807911 0.907655
vt 0.807911 0.964623
vt 0.864879 0.964623
vt 0.807911 0.907655
vt 0.811359 0.955354
vt 0.861431 0.955354
vt 0.861431 0.916923
vt 0.811359 0.916923
vt 0.864879 0.964623
vt 0.807911 0.907655
vt 0.864879 0.907655
vt 0.861431 0.955354
vt 0.811359 0.955354
vt 0.811359 0.916923
vt 0.861431 0.916923
vt 0.807911 0.964623
vt 0.864880 0.907655
vt 0.797988 0.956840
vt 0.800659 0.956521
vt 0.802331 0.958226
vt 0.800028 0.958226
vt 0.800297 0.956521
vt 0.797600 0.956840
vt 0.799640 0.958226
vt 0.801969 0.958226
vt 0.870136 0.956840
vt 0.867465 0.956521
vt 0.865793 0.958226
vt 0.868096 0.958226
vt 0.867827 0.956521
vt 0.870524 0.956840
vt 0.868484 0.958226
vt 0.866155 0.958226
vt 0.797574 0.970582
vt 0.800028 0.969821
vt 0.797186 0.970582
vt 0.799640 0.969821
vt 0.870550 0.970582
vt 0.868096 0.969821
vt 0.870938 0.970582
vt 0.868484 0.969821
vt 0.801973 0.974569
vt 0.803070 0.972554
vt 0.801619 0.974569
vt 0.802716 0.972554
vt 0.866152 0.974569
vt 0.865055 0.972554
vt 0.866505 0.974569
vt 0.865408 0.972554
vt 0.800297 0.956521
vt 0.797600 0.956840
vt 0.799640 0.958226
vt 0.801969 0.958226
vt 0.797574 0.970582
vt 0.797988 0.956840
vt 0.800028 0.958226
vt 0.800028 0.969821
vt 0.797186 0.970582
vt 0.799640 0.969821
vt 0.870550 0.970582
vt 0.870136 0.956840
vt 0.868096 0.958226
vt 0.868096 0.969821
vt 0.870524 0.956840
vt 0.870938 0.970582
vt 0.868484 0.969821
vt 0.868484 0.958226
vt 0.801973 0.974569
vt 0.803070 0.972554
vt 0.801619 0.974569
vt 0.802716 0.972554
vt 0.866152 0.974569
vt 0.865055 0.972554
vt 0.866505 0.974569
vt 0.865408 0.972554
vn 0.0000 -1.0000 0.0000
vn 0.3090 0.0000 0.9511
vn 0.8090 0.0000 0.5878
vn 1.0000 0.0000 -0.0000
vn 0.8090 0.0000 -0.5878
vn 0.3090 0.0000 -0.9511
vn -0.3090 0.0000 -0.9511
vn -0.8090 0.0000 -0.5878
vn -1.0000 0.0000 -0.0000
vn -0.8090 0.0000 0.5878
vn -0.3090 0.0000 0.9511
vn -0.0000 1.0000 0.0000
vn 0.2239 0.6892 0.6892
vn 0.5862 0.6892 0.4259
vn 0.7246 0.6892 -0.0000
vn 0.5862 0.6892 -0.4259
vn 0.2239 0.6892 -0.6892
vn -0.2239 0.6892 -0.6892
vn -0.5862 0.6892 -0.4259
vn -0.7246 0.6892 -0.0000
vn -0.5862 0.6892 0.4259
vn -0.2239 0.6892 0.6892
vn -0.0000 -0.0000 -1.0000
vn 0.7518 0.6594 0.0000
vn -0.0000 -0.0000 1.0000
vn -0.7765 -0.6301 0.0000
vn 0.0019 1.0000 -0.0000
vn 0.0190 -0.9998 0.0000
vn -0.0219 -0.9998 0.0000
vn -0.0164 0.9999 0.0000
vn 0.9063 -0.4226 0.0000
vn -0.9063 0.4226 -0.0000
vn -0.9275 -0.3738 0.0000
vn 0.9076 0.4198 0.0000
vn -0.6052 -0.7961 -0.0000
vn 0.6022 0.7983 -0.0000
vn -0.7518 0.6594 0.0000
vn 0.7765 -0.6301 0.0000
vn -0.0019 1.0000 -0.0000
vn -0.0190 -0.9998 0.0000
vn 0.0219 -0.9998 0.0000
vn 0.0164 0.9999 -0.0000
vn -0.9063 -0.4226 0.0000
vn 0.9063 0.4226 0.0000
vn 0.9275 -0.3738 0.0000
vn -0.9076 0.4198 0.0000
vn 0.6052 -0.7961 0.0000
vn -0.6022 0.7983 0.0000
vn 0.9996 -0.0256 -0.0083
vn -0.9996 -0.0256 0.0083
vn 0.7282 0.6854 -0.0060
vn -0.7282 0.6854 0.0060
vn -1.0000 0.0000 0.0083
vn 1.0000 0.0000 -0.0083
vn -0.7246 -0.6891 0.0060
vn 0.7246 -0.6891 -0.0060
vn 0.0011 -0.9904 0.1384
vn -0.0083 -0.0256 -0.9996
vn 0.0083 -0.0256 0.9996
vn -0.0060 0.6854 -0.7282
vn 0.0060 0.6854 0.7282
vn 0.0083 0.0000 1.0000
vn -0.0083 0.0000 -1.0000
vn 0.0060 -0.6891 0.7246
vn -0.0060 -0.6891 -0.7246
vn -0.6709 0.7416 -0.0000
vn 0.6709 0.7416 0.0000
vn -0.6709 -0.7415 -0.0000
vn 0.6709 -0.7415 0.0000
vn 0.6657 0.0000 -0.7462
vn -0.6657 0.0000 -0.7462
vn -0.6657 0.0000 0.7462
vn 0.6657 0.0000 0.7462
vn -0.0916 -0.0963 -0.9911
vn -0.0891 -0.0937 -0.9916
vn -0.1093 -0.1144 -0.9874
vn -0.1006 -0.1055 -0.9893
vn -0.0943 -0.0934 0.9912
vn -0.0967 -0.0958 0.9907
vn -0.1057 -0.1050 0.9888
vn -0.1144 -0.1139 0.9869
vn 0.0916 -0.0963 0.9911
vn 0.0891 -0.0937 0.9916
vn 0.1093 -0.1144 0.9874
vn 0.1006 -0.1055 0.9893
vn 0.0943 -0.0934 -0.9912
vn 0.0967 -0.0958 -0.9907
vn 0.1057 -0.1050 -0.9888
vn 0.1144 -0.1139 -0.9869
vn -0.0417 0.0484 -0.9980
vn -0.0428 0.0496 -0.9979
vn -0.0472 0.0482 0.9977
vn -0.0483 0.0495 0.9976
vn 0.0417 0.0484 0.9980
vn 0.0428 0.0496 0.9979
vn 0.0472 0.0482 -0.9977
vn 0.0483 0.0495 -0.9976
vn -0.0427 0.0505 -0.9978
vn -0.0415 0.0482 -0.9980
vn -0.0488 0.0500 0.9976
vn -0.0470 0.0480 0.9977
vn 0.0427 0.0505 0.9978
vn 0.0415 0.0482 0.9980
vn 0.0488 0.0500 -0.9976
vn 0.0470 0.0480 -0.9977
vn -0.0488 0.0499 0.9976
vn 0.0432 0.0500 0.9978
vn -0.0470 0.0481 0.9977
vn 0.0488 0.0499 -0.9976
vn -0.0432 0.0500 -0.9978
vn 0.0470 0.0481 -0.9977
vn 0.9912 -0.0934 0.0943
vn 0.9907 -0.0958 0.0967
vn 0.9888 -0.1050 0.1057
vn 0.9869 -0.1139 0.1144
vn -0.9980 0.0484 0.0417
vn -0.9911 -0.0963 0.0916
vn -0.9893 -0.1055 0.1006
vn -0.9979 0.0496 0.0428
vn 0.9977 0.0482 0.0472
vn 0.9976 0.0495 0.0483
vn 0.9980 0.0484 -0.0417
vn 0.9911 -0.0963 -0.0916
vn 0.9893 -0.1055 -0.1006
vn 0.9979 0.0496 -0.0428
vn -0.9907 -0.0958 -0.0967
vn -0.9977 0.0482 -0.0472
vn -0.9976 0.0495 -0.0483
vn -0.9888 -0.1050 -0.1057
vn -0.9978 0.0505 0.0427
vn -0.9980 0.0482 0.0415
vn 0.9976 0.0500 0.0488
vn 0.9977 0.0480 0.0470
vn 0.9978 0.0505 -0.0427
vn 0.9980 0.0482 -0.0415
vn -0.9976 0.0500 -0.0488
vn -0.9977 0.0480 -0.0470
vn 0.9976 0.0499 0.0488
vn 0.9978 0.0500 -0.0432
vn 0.9977 0.0481 0.0470
vn -0.9976 0.0499 -0.0488
vn -0.9978 0.0500 0.0432
vn -0.9977 0.0481 -0.0470
usemtl Christmas_Tree
s off
f 1/1/1 2/2/1 12/3/1 11/4/1
f 5/5/1 6/6/1 16/7/1 15/8/1
f 11/9/2 12/10/2 22/11/2 21/12/2
f 12/10/3 13/13/3 23/14/3 22/11/3
f 13/13/4 14/15/4 24/16/4 23/14/4
f 14/17/5 15/18/5 25/19/5 24/20/5
f 15/18/6 16/21/6 26/22/6 25/19/6
f 16/21/7 17/23/7 27/24/7 26/22/7
f 17/23/8 18/25/8 28/26/8 27/24/8
f 18/25/9 19/27/9 29/28/9 28/26/9
f 19/27/10 20/29/10 30/30/10 29/28/10
f 20/29/11 11/9/11 21/12/11 30/30/11
f 33/31/12 34/32/12 31/33/12
f 34/32/12 35/34/12 31/33/12
f 35/34/12 36/35/12 31/33/12
f 36/35/12 37/36/12 31/33/12
f 37/36/12 38/37/12 31/33/12
f 38/37/12 39/38/12 31/33/12
f 39/38/12 40/39/12 31/33/12
f 40/39/12 41/40/12 31/33/12
f 41/40/12 32/41/12 31/33/12
f 32/41/12 33/31/12 31/33/12
f 22/42/13 33/31/13 32/41/13 21/43/13
f 23/44/14 34/32/14 33/31/14 22/42/14
f 24/45/15 35/34/15 34/32/15 23/44/15
f 25/46/16 36/35/16 35/34/16 24/45/16
f 26/47/17 37/36/17 36/35/17 25/46/17
f 27/48/18 38/37/18 37/36/18 26/47/18
f 28/49/19 39/38/19 38/37/19 27/48/19
f 29/50/20 40/39/20 39/38/20 28/49/20
f 30/51/21 41/40/21 40/39/21 29/50/21
f 21/43/22 32/41/22 41/40/22 30/51/22
f 42/52/23 43/53/23 44/54/23 45/55/23
f 45/56/24 44/57/24 46/58/24 47/59/24
f 47/60/25 46/61/25 48/62/25 49/63/25
f 49/64/26 48/62/26 43/65/26 42/66/26
f 42/52/23 45/55/23 50/67/23 51/68/23
f 45/56/27 47/59/27 52/69/27 50/70/27
f 49/63/25 53/71/25 52/72/25 47/60/25
f 42/66/28 51/68/28 53/73/28 49/64/28
f 54/74/23 55/75/23 56/76/23 57/77/23
f 55/78/29 58/79/29 59/80/29 56/81/29
f 58/82/25 60/83/25 61/84/25 59/85/25
f 60/86/30 54/87/30 57/88/30 61/84/30
f 56/76/23 44/54/23 43/53/23 57/77/23
f 59/80/31 46/58/31 44/57/31 56/81/31
f 59/85/25 61/84/25 48/62/25 46/61/25
f 57/88/32 43/65/32 48/62/32 61/84/32
f 62/89/23 63/90/23 55/75/23 54/74/23
f 63/91/33 64/92/33 58/79/33 55/78/33
f 58/82/25 64/93/25 65/94/25 60/83/25
f 65/95/34 62/96/34 54/87/34 60/86/34
f 62/89/23 51/68/23 50/67/23 63/90/23
f 50/70/35 52/69/35 64/92/35 63/91/35
f 52/72/25 53/71/25 65/94/25 64/93/25
f 53/73/36 51/68/36 62/96/36 65/95/36
f 82/97/25 83/98/25 84/99/25 85/100/25
f 85/101/37 84/102/37 86/103/37 87/104/37
f 87/105/23 86/106/23 88/107/23 89/108/23
f 89/109/38 88/107/38 83/110/38 82/111/38
f 82/97/25 85/100/25 90/112/25 91/113/25
f 85/101/39 87/104/39 92/114/39 90/115/39
f 89/108/23 93/116/23 92/117/23 87/105/23
f 82/111/40 91/113/40 93/118/40 89/109/40
f 94/119/25 95/120/25 96/121/25 97/122/25
f 95/123/41 98/124/41 99/125/41 96/126/41
f 98/127/23 100/128/23 101/129/23 99/130/23
f 100/131/42 94/132/42 97/133/42 101/129/42
f 96/121/25 84/99/25 83/98/25 97/122/25
f 99/125/43 86/103/43 84/102/43 96/126/43
f 99/130/23 101/129/23 88/107/23 86/106/23
f 97/133/44 83/110/44 88/107/44 101/129/44
f 102/134/25 103/135/25 95/120/25 94/119/25
f 103/136/45 104/137/45 98/124/45 95/123/45
f 98/127/23 104/138/23 105/139/23 100/128/23
f 105/140/46 102/141/46 94/132/46 100/131/46
f 102/134/25 91/113/25 90/112/25 103/135/25
f 90/115/47 92/114/47 104/137/47 103/136/47
f 92/117/23 93/116/23 105/139/23 104/138/23
f 93/118/48 91/113/48 102/141/48 105/140/48
f 111/142/49 110/143/49 114/144/49 115/145/49
f 113/146/50 112/147/50 116/148/50 117/149/50
f 114/150/51 118/151/51 119/152/51 115/153/51
f 116/154/52 120/155/52 121/156/52 117/157/52
f 130/158/53 126/159/53 127/160/53 131/161/53
f 132/162/54 128/163/54 129/164/54 133/165/54
f 135/166/55 134/167/55 130/168/55 131/169/55
f 137/170/56 136/171/56 132/172/56 133/173/56
f 141/174/57 140/175/57 144/176/57 145/177/57
f 143/178/58 142/179/58 146/180/58 147/181/58
f 145/182/59 144/183/59 148/184/59 149/185/59
f 146/186/60 150/187/60 151/188/60 147/189/60
f 148/190/61 152/191/61 153/192/61 149/193/61
f 158/194/12 154/195/12 155/196/12 159/197/12
f 160/198/12 156/199/12 157/200/12 161/201/12
f 162/202/62 158/203/62 159/204/62 163/205/62
f 164/206/63 160/207/63 161/208/63 165/209/63
f 166/210/64 167/211/64 162/212/64 163/213/64
f 168/214/65 169/215/65 164/216/65 165/217/65
s 1
f 66/218/12 67/219/12 68/220/12 69/221/12
f 70/222/1 71/223/1 72/224/1 73/225/1
f 67/226/23 66/227/23 72/224/23 71/228/23
f 74/229/9 75/230/9 76/231/9 77/232/9
f 69/233/25 68/220/25 70/234/25 73/235/25
f 78/236/4 79/237/4 80/238/4 81/239/4
f 67/219/66 75/230/66 74/229/66 68/220/66
f 69/240/67 79/237/67 78/236/67 66/227/67
f 70/234/68 77/232/68 76/231/68 71/241/68
f 72/224/69 81/239/69 80/238/69 73/225/69
f 66/227/70 78/236/70 81/239/70 72/224/70
f 71/241/71 76/231/71 75/230/71 67/219/71
f 77/232/72 70/234/72 68/220/72 74/229/72
f 73/225/73 80/238/73 79/237/73 69/240/73
f 120/155/12 119/152/12 118/151/12 121/156/12
f 134/167/1 135/166/1 136/171/1 137/170/1
f 110/242/74 106/243/75 122/244/76 126/245/77
f 107/246/78 111/247/79 127/248/80 123/249/81
f 112/250/82 108/251/83 124/252/84 128/253/85
f 109/254/86 113/255/87 129/256/88 125/257/89
f 114/258/90 110/242/74 126/245/77 130/259/91
f 111/247/79 115/260/92 131/261/93 127/248/80
f 116/262/94 112/250/82 128/253/85 132/263/95
f 113/255/87 117/264/96 133/265/97 129/256/88
f 118/266/98 114/258/90 130/259/91 134/267/99
f 115/260/92 119/268/100 135/269/101 131/261/93
f 120/270/102 116/262/94 132/263/95 136/271/103
f 117/264/96 121/272/104 137/273/105 133/265/97
f 119/268/106 120/270/107 136/271/103 135/269/108
f 121/272/109 118/266/110 134/267/99 137/273/111
f 152/191/12 151/188/12 150/187/12 153/192/12
f 167/211/1 166/210/1 169/215/1 168/214/1
f 139/274/112 143/275/113 159/276/114 155/277/115
f 146/278/116 142/279/117 158/280/118 162/281/119
f 143/275/113 147/282/120 163/283/121 159/276/114
f 148/284/122 144/285/123 160/286/124 164/287/125
f 145/288/126 149/289/127 165/290/128 161/291/129
f 150/292/130 146/278/116 162/281/119 167/293/131
f 147/282/120 151/294/132 166/295/133 163/283/121
f 152/296/134 148/284/122 164/287/125 169/297/135
f 149/289/127 153/298/136 168/299/137 165/290/128
f 151/294/138 152/296/139 169/297/135 166/295/140
f 153/298/141 150/292/142 167/293/131 168/299/143
l 3 13
l 4 14
l 7 17
l 8 18
l 9 19
l 10 20
l 138 142
