# Blender v3.0.0 OBJ File: ''
# www.blender.org
mtllib GoldenBall.mtl
o Christmas_Tree_Ball_002_Mesh.011
v -0.704628 1.233889 0.311855
v -0.570159 1.146020 0.267646
v -0.705119 1.146582 0.169958
v -0.839731 1.146754 0.268126
v -0.787966 1.146298 0.426485
v -0.621362 1.145845 0.426188
v -0.622155 1.004579 0.196595
v -0.788759 1.005033 0.196892
v -0.839962 1.004858 0.355433
v -0.705002 1.004295 0.453121
v -0.570390 1.004123 0.354954
v -0.705493 0.916989 0.311225
v 0.790998 1.214382 0.252086
v 0.925467 1.126513 0.207878
v 0.790508 1.127075 0.110190
v 0.655896 1.127247 0.208357
v 0.707660 1.126791 0.366716
v 0.874265 1.126338 0.366420
v 0.873471 0.985072 0.136826
v 0.706867 0.985526 0.137123
v 0.655664 0.985351 0.295665
v 0.790624 0.984789 0.393353
v 0.925236 0.984616 0.295185
v 0.790133 0.897482 0.251456
v -0.053117 2.308047 -0.349824
v 0.081353 2.220178 -0.394032
v -0.053607 2.220741 -0.491720
v -0.188219 2.220912 -0.393553
v -0.136454 2.220457 -0.235194
v 0.030150 2.220003 -0.235490
v 0.029357 2.078737 -0.465083
v -0.137248 2.079191 -0.464787
v -0.188450 2.079016 -0.306245
v -0.053491 2.078454 -0.208557
v 0.081121 2.078282 -0.306724
v -0.053981 1.991147 -0.350453
v -0.612407 0.488919 -0.691096
v -0.477938 0.401050 -0.735305
v -0.612897 0.401612 -0.832993
v -0.747509 0.401784 -0.734825
v -0.695744 0.401328 -0.576466
v -0.529140 0.400874 -0.576763
v -0.529933 0.259609 -0.806356
v -0.696538 0.260063 -0.806059
v -0.747740 0.259888 -0.647517
v -0.612781 0.259325 -0.549829
v -0.478169 0.259153 -0.647997
v -0.613271 0.172018 -0.691726
v -0.175292 1.214571 -0.731121
v -0.040823 1.126703 -0.775330
v -0.175782 1.127265 -0.873018
v -0.310394 1.127437 -0.774850
v -0.258630 1.126981 -0.616491
v -0.092025 1.126527 -0.616788
v -0.092818 0.985262 -0.846381
v -0.259423 0.985716 -0.846084
v -0.310625 0.985540 -0.687542
v -0.175666 0.984978 -0.589854
v -0.041054 0.984806 -0.688022
v -0.176156 0.897671 -0.731751
v 0.318267 2.392732 -0.029726
v 0.452736 2.304862 -0.073934
v 0.317777 2.305425 -0.171622
v 0.183165 2.305597 -0.073455
v 0.234929 2.305141 0.084904
v 0.401534 2.304688 0.084608
v 0.400740 2.163422 -0.144986
v 0.234136 2.163876 -0.144689
v 0.182934 2.163701 0.013853
v 0.317893 2.163138 0.111541
v 0.452505 2.162966 0.013373
v 0.317403 2.075831 -0.030356
vt 0.426496 0.644033
vt 0.455631 0.536822
vt 0.397363 0.536822
vt 0.368228 0.644033
vt 0.339094 0.536822
vt 0.601301 0.644033
vt 0.630435 0.536822
vt 0.572167 0.536822
vt 0.543033 0.644033
vt 0.513899 0.536822
vt 0.484765 0.644033
vt 0.484765 0.447028
vt 0.426496 0.447028
vt 0.368228 0.447028
vt 0.659569 0.447028
vt 0.601301 0.447028
vt 0.543033 0.447028
vt 0.397363 0.339817
vt 0.630435 0.339817
vt 0.572167 0.339817
vt 0.513899 0.339817
vt 0.455631 0.339817
vt 0.426496 0.644033
vt 0.455631 0.536822
vt 0.397363 0.536822
vt 0.368228 0.644033
vt 0.339094 0.536822
vt 0.601301 0.644033
vt 0.630435 0.536822
vt 0.572167 0.536822
vt 0.543033 0.644033
vt 0.513899 0.536822
vt 0.484765 0.644033
vt 0.484765 0.447028
vt 0.426496 0.447028
vt 0.368228 0.447028
vt 0.659569 0.447028
vt 0.601301 0.447028
vt 0.543033 0.447028
vt 0.397363 0.339817
vt 0.630435 0.339817
vt 0.572167 0.339817
vt 0.513899 0.339817
vt 0.455631 0.339817
vt 0.426496 0.644033
vt 0.455631 0.536822
vt 0.397363 0.536822
vt 0.368228 0.644033
vt 0.339094 0.536822
vt 0.601301 0.644033
vt 0.630435 0.536822
vt 0.572167 0.536822
vt 0.543033 0.644033
vt 0.513899 0.536822
vt 0.484765 0.644033
vt 0.484765 0.447028
vt 0.426496 0.447028
vt 0.368228 0.447028
vt 0.659569 0.447028
vt 0.601301 0.447028
vt 0.543033 0.447028
vt 0.397363 0.339817
vt 0.630435 0.339817
vt 0.572167 0.339817
vt 0.513899 0.339817
vt 0.455631 0.339817
vt 0.426496 0.644033
vt 0.455631 0.536822
vt 0.397363 0.536822
vt 0.368228 0.644033
vt 0.339094 0.536822
vt 0.601301 0.644033
vt 0.630435 0.536822
vt 0.572167 0.536822
vt 0.543033 0.644033
vt 0.513899 0.536822
vt 0.484765 0.644033
vt 0.484765 0.447028
vt 0.426496 0.447028
vt 0.368228 0.447028
vt 0.659569 0.447028
vt 0.601301 0.447028
vt 0.543033 0.447028
vt 0.397363 0.339817
vt 0.630435 0.339817
vt 0.572167 0.339817
vt 0.513899 0.339817
vt 0.455631 0.339817
vt 0.426496 0.644033
vt 0.455631 0.536822
vt 0.397363 0.536822
vt 0.368228 0.644033
vt 0.339094 0.536822
vt 0.601301 0.644033
vt 0.630435 0.536822
vt 0.572167 0.536822
vt 0.543033 0.644033
vt 0.513899 0.536822
vt 0.484765 0.644033
vt 0.484765 0.447028
vt 0.426496 0.447028
vt 0.368228 0.447028
vt 0.659569 0.447028
vt 0.601301 0.447028
vt 0.543033 0.447028
vt 0.397363 0.339817
vt 0.630435 0.339817
vt 0.572167 0.339817
vt 0.513899 0.339817
vt 0.455631 0.339817
vt 0.426496 0.644033
vt 0.455631 0.536822
vt 0.397363 0.536822
vt 0.368228 0.644033
vt 0.339094 0.536822
vt 0.601301 0.644033
vt 0.630435 0.536822
vt 0.572167 0.536822
vt 0.543033 0.644033
vt 0.513899 0.536822
vt 0.484765 0.644033
vt 0.484765 0.447028
vt 0.426496 0.447028
vt 0.368228 0.447028
vt 0.659569 0.447028
vt 0.601301 0.447028
vt 0.543033 0.447028
vt 0.397363 0.339817
vt 0.630435 0.339817
vt 0.572167 0.339817
vt 0.513899 0.339817
vt 0.455631 0.339817
vn 0.3581 0.7947 -0.4902
vn -0.3555 0.7966 -0.4889
vn -0.5748 0.7958 0.1902
vn 0.0032 0.7934 0.6086
vn 0.5798 0.7927 0.1881
vn 0.9331 -0.1895 -0.3056
vn -0.0023 -0.1856 -0.9826
vn -0.9352 -0.1844 -0.3022
vn -0.5764 -0.1876 0.7953
vn 0.5782 -0.1907 0.7933
vn 0.5764 0.1876 -0.7953
vn -0.5782 0.1907 -0.7933
vn -0.9331 0.1895 0.3056
vn 0.0023 0.1856 0.9826
vn 0.9352 0.1844 0.3022
vn -0.0032 -0.7934 -0.6086
vn -0.5798 -0.7927 -0.1881
vn -0.3581 -0.7947 0.4902
vn 0.3555 -0.7966 0.4889
vn 0.5748 -0.7958 -0.1902
vn -0.5765 -0.1876 0.7953
vn 0.5765 0.1876 -0.7953
usemtl Christmas_Tree
s off
f 1/1/1 2/2/1 3/3/1
f 1/4/2 3/3/2 4/5/2
f 1/6/3 4/7/3 5/8/3
f 1/9/4 5/8/4 6/10/4
f 1/11/5 6/10/5 2/2/5
f 2/2/6 11/12/6 7/13/6
f 3/3/7 7/13/7 8/14/7
f 4/7/8 8/15/8 9/16/8
f 5/8/9 9/16/9 10/17/9
f 6/10/10 10/17/10 11/12/10
f 7/13/11 3/3/11 2/2/11
f 8/14/12 4/5/12 3/3/12
f 9/16/13 5/8/13 4/7/13
f 10/17/14 6/10/14 5/8/14
f 11/12/15 2/2/15 6/10/15
f 12/18/16 8/14/16 7/13/16
f 12/19/17 9/16/17 8/15/17
f 12/20/18 10/17/18 9/16/18
f 12/21/19 11/12/19 10/17/19
f 12/22/20 7/13/20 11/12/20
f 13/23/1 14/24/1 15/25/1
f 13/26/2 15/25/2 16/27/2
f 13/28/3 16/29/3 17/30/3
f 13/31/4 17/30/4 18/32/4
f 13/33/5 18/32/5 14/24/5
f 14/24/6 23/34/6 19/35/6
f 15/25/7 19/35/7 20/36/7
f 16/29/8 20/37/8 21/38/8
f 17/30/9 21/38/9 22/39/9
f 18/32/10 22/39/10 23/34/10
f 19/35/11 15/25/11 14/24/11
f 20/36/12 16/27/12 15/25/12
f 21/38/13 17/30/13 16/29/13
f 22/39/14 18/32/14 17/30/14
f 23/34/15 14/24/15 18/32/15
f 24/40/16 20/36/16 19/35/16
f 24/41/17 21/38/17 20/37/17
f 24/42/18 22/39/18 21/38/18
f 24/43/19 23/34/19 22/39/19
f 24/44/20 19/35/20 23/34/20
f 25/45/1 26/46/1 27/47/1
f 25/48/2 27/47/2 28/49/2
f 25/50/3 28/51/3 29/52/3
f 25/53/4 29/52/4 30/54/4
f 25/55/5 30/54/5 26/46/5
f 26/46/6 35/56/6 31/57/6
f 27/47/7 31/57/7 32/58/7
f 28/51/8 32/59/8 33/60/8
f 29/52/21 33/60/21 34/61/21
f 30/54/10 34/61/10 35/56/10
f 31/57/11 27/47/11 26/46/11
f 32/58/12 28/49/12 27/47/12
f 33/60/13 29/52/13 28/51/13
f 34/61/14 30/54/14 29/52/14
f 35/56/15 26/46/15 30/54/15
f 36/62/16 32/58/16 31/57/16
f 36/63/17 33/60/17 32/59/17
f 36/64/18 34/61/18 33/60/18
f 36/65/19 35/56/19 34/61/19
f 36/66/20 31/57/20 35/56/20
f 37/67/1 38/68/1 39/69/1
f 37/70/2 39/69/2 40/71/2
f 37/72/3 40/73/3 41/74/3
f 37/75/4 41/74/4 42/76/4
f 37/77/5 42/76/5 38/68/5
f 38/68/6 47/78/6 43/79/6
f 39/69/7 43/79/7 44/80/7
f 40/73/8 44/81/8 45/82/8
f 41/74/9 45/82/9 46/83/9
f 42/76/10 46/83/10 47/78/10
f 43/79/11 39/69/11 38/68/11
f 44/80/12 40/71/12 39/69/12
f 45/82/13 41/74/13 40/73/13
f 46/83/14 42/76/14 41/74/14
f 47/78/15 38/68/15 42/76/15
f 48/84/16 44/80/16 43/79/16
f 48/85/17 45/82/17 44/81/17
f 48/86/18 46/83/18 45/82/18
f 48/87/19 47/78/19 46/83/19
f 48/88/20 43/79/20 47/78/20
f 49/89/1 50/90/1 51/91/1
f 49/92/2 51/91/2 52/93/2
f 49/94/3 52/95/3 53/96/3
f 49/97/4 53/96/4 54/98/4
f 49/99/5 54/98/5 50/90/5
f 50/90/6 59/100/6 55/101/6
f 51/91/7 55/101/7 56/102/7
f 52/95/8 56/103/8 57/104/8
f 53/96/21 57/104/21 58/105/21
f 54/98/10 58/105/10 59/100/10
f 55/101/22 51/91/22 50/90/22
f 56/102/12 52/93/12 51/91/12
f 57/104/13 53/96/13 52/95/13
f 58/105/14 54/98/14 53/96/14
f 59/100/15 50/90/15 54/98/15
f 60/106/16 56/102/16 55/101/16
f 60/107/17 57/104/17 56/103/17
f 60/108/18 58/105/18 57/104/18
f 60/109/19 59/100/19 58/105/19
f 60/110/20 55/101/20 59/100/20
f 61/111/1 62/112/1 63/113/1
f 61/114/2 63/113/2 64/115/2
f 61/116/3 64/117/3 65/118/3
f 61/119/4 65/118/4 66/120/4
f 61/121/5 66/120/5 62/112/5
f 62/112/6 71/122/6 67/123/6
f 63/113/7 67/123/7 68/124/7
f 64/117/8 68/125/8 69/126/8
f 65/118/9 69/126/9 70/127/9
f 66/120/10 70/127/10 71/122/10
f 67/123/11 63/113/11 62/112/11
f 68/124/12 64/115/12 63/113/12
f 69/126/13 65/118/13 64/117/13
f 70/127/14 66/120/14 65/118/14
f 71/122/15 62/112/15 66/120/15
f 72/128/16 68/124/16 67/123/16
f 72/129/17 69/126/17 68/125/17
f 72/130/18 70/127/18 69/126/18
f 72/131/19 71/122/19 70/127/19
f 72/132/20 67/123/20 71/122/20
