# Blender v3.0.0 OBJ File: ''
# www.blender.org
mtllib PurpleBall.mtl
o Christmas_Tree_055_Mesh.020
v 0.271741 0.583882 -0.890072
v 0.406210 0.496013 -0.934281
v 0.271251 0.496575 -1.031968
v 0.136639 0.496747 -0.933801
v 0.188404 0.496291 -0.775442
v 0.355008 0.495837 -0.775739
v 0.354215 0.354572 -1.005332
v 0.187610 0.355026 -1.005035
v 0.136408 0.354850 -0.846493
v 0.271367 0.354288 -0.748805
v 0.405979 0.354116 -0.846973
v 0.270877 0.266981 -0.890702
v -0.192005 1.156864 0.818146
v -0.057536 1.068995 0.773937
v -0.192495 1.069558 0.676249
v -0.327107 1.069730 0.774417
v -0.275343 1.069274 0.932775
v -0.108738 1.068820 0.932479
v -0.109532 0.927555 0.702886
v -0.276136 0.928009 0.703182
v -0.327339 0.927833 0.861724
v -0.192379 0.927271 0.959412
v -0.057767 0.927099 0.861245
v -0.192869 0.839964 0.817516
v 0.703238 0.583882 0.621210
v 0.837707 0.496013 0.577001
v 0.702748 0.496575 0.479313
v 0.568136 0.496747 0.577481
v 0.619900 0.496291 0.735839
v 0.786505 0.495837 0.735543
v 0.785711 0.354572 0.505950
v 0.619107 0.355026 0.506246
v 0.567904 0.354851 0.664788
v 0.702864 0.354288 0.762476
v 0.837476 0.354116 0.664309
v 0.702374 0.266981 0.620580
v -0.889997 0.548923 0.425167
v -0.755528 0.461054 0.380958
v -0.890487 0.461616 0.283270
v -1.025099 0.461789 0.381438
v -0.973335 0.461333 0.539797
v -0.806730 0.460879 0.539500
v -0.807524 0.319613 0.309907
v -0.974128 0.320067 0.310203
v -1.025331 0.319892 0.468745
v -0.890371 0.319330 0.566433
v -0.755759 0.319158 0.468266
v -0.890861 0.232023 0.424537
v -0.373295 2.174058 0.126098
v -0.238826 2.086189 0.081890
v -0.373785 2.086751 -0.015798
v -0.508398 2.086923 0.082369
v -0.456633 2.086468 0.240728
v -0.290029 2.086014 0.240432
v -0.290822 1.944748 0.010839
v -0.457426 1.945202 0.011135
v -0.508629 1.945027 0.169677
v -0.373669 1.944465 0.267365
v -0.239057 1.944292 0.169197
v -0.374160 1.857158 0.125468
v 0.620679 1.755344 -0.175882
v 0.755149 1.667475 -0.220090
v 0.620189 1.668037 -0.317778
v 0.485577 1.668209 -0.219611
v 0.537342 1.667754 -0.061252
v 0.703946 1.667300 -0.061548
v 0.703153 1.526034 -0.291142
v 0.536548 1.526488 -0.290845
v 0.485346 1.526313 -0.132303
v 0.620305 1.525751 -0.034615
v 0.754917 1.525579 -0.132783
v 0.619815 1.438444 -0.176512
vt 0.426496 0.312757
vt 0.455631 0.205546
vt 0.397363 0.205546
vt 0.368228 0.312757
vt 0.339094 0.205546
vt 0.601301 0.312757
vt 0.630435 0.205546
vt 0.572167 0.205546
vt 0.543033 0.312757
vt 0.513899 0.205546
vt 0.484765 0.312757
vt 0.484765 0.115752
vt 0.426496 0.115752
vt 0.368228 0.115752
vt 0.659569 0.115752
vt 0.601301 0.115752
vt 0.543033 0.115752
vt 0.397363 0.008541
vt 0.630435 0.008541
vt 0.572167 0.008541
vt 0.513899 0.008541
vt 0.455631 0.008541
vt 0.426496 0.312757
vt 0.455631 0.205546
vt 0.397363 0.205546
vt 0.368228 0.312757
vt 0.339094 0.205546
vt 0.601301 0.312757
vt 0.630435 0.205546
vt 0.572167 0.205546
vt 0.543033 0.312757
vt 0.513899 0.205546
vt 0.484765 0.312757
vt 0.484765 0.115752
vt 0.426496 0.115752
vt 0.368228 0.115752
vt 0.659569 0.115752
vt 0.601301 0.115752
vt 0.543033 0.115752
vt 0.397363 0.008541
vt 0.630435 0.008541
vt 0.572167 0.008541
vt 0.513899 0.008541
vt 0.455631 0.008541
vt 0.426496 0.312757
vt 0.455631 0.205546
vt 0.397363 0.205546
vt 0.368228 0.312757
vt 0.339094 0.205546
vt 0.601301 0.312757
vt 0.630435 0.205546
vt 0.572167 0.205546
vt 0.543033 0.312757
vt 0.513899 0.205546
vt 0.484765 0.312757
vt 0.484765 0.115752
vt 0.426496 0.115752
vt 0.368228 0.115752
vt 0.659569 0.115752
vt 0.601301 0.115752
vt 0.543033 0.115752
vt 0.397363 0.008541
vt 0.630435 0.008541
vt 0.572167 0.008541
vt 0.513899 0.008541
vt 0.455631 0.008541
vt 0.426496 0.312757
vt 0.455631 0.205546
vt 0.397363 0.205546
vt 0.368228 0.312757
vt 0.339094 0.205546
vt 0.601301 0.312757
vt 0.630435 0.205546
vt 0.572167 0.205546
vt 0.543033 0.312757
vt 0.513899 0.205546
vt 0.484765 0.312757
vt 0.484765 0.115752
vt 0.426496 0.115752
vt 0.368228 0.115752
vt 0.659569 0.115752
vt 0.601301 0.115752
vt 0.543033 0.115752
vt 0.397363 0.008541
vt 0.630435 0.008541
vt 0.572167 0.008541
vt 0.513899 0.008541
vt 0.455631 0.008541
vt 0.426496 0.312757
vt 0.455631 0.205546
vt 0.397363 0.205546
vt 0.368228 0.312757
vt 0.339094 0.205546
vt 0.601301 0.312757
vt 0.630435 0.205546
vt 0.572167 0.205546
vt 0.543033 0.312757
vt 0.513899 0.205546
vt 0.484765 0.312757
vt 0.484765 0.115752
vt 0.426496 0.115752
vt 0.368228 0.115752
vt 0.659569 0.115752
vt 0.601301 0.115752
vt 0.543033 0.115752
vt 0.397363 0.008541
vt 0.630435 0.008541
vt 0.572167 0.008541
vt 0.513899 0.008541
vt 0.455631 0.008541
vt 0.426496 0.312757
vt 0.455631 0.205546
vt 0.397363 0.205546
vt 0.368228 0.312757
vt 0.339094 0.205546
vt 0.601301 0.312757
vt 0.630435 0.205546
vt 0.572167 0.205546
vt 0.543033 0.312757
vt 0.513899 0.205546
vt 0.484765 0.312757
vt 0.484765 0.115752
vt 0.426496 0.115752
vt 0.368228 0.115752
vt 0.659569 0.115752
vt 0.601301 0.115752
vt 0.543033 0.115752
vt 0.397363 0.008541
vt 0.630435 0.008541
vt 0.572167 0.008541
vt 0.513899 0.008541
vt 0.455631 0.008541
vn 0.3581 0.7947 -0.4902
vn -0.3555 0.7966 -0.4889
vn -0.5748 0.7958 0.1902
vn 0.0032 0.7934 0.6086
vn 0.5798 0.7927 0.1881
vn 0.9331 -0.1895 -0.3056
vn -0.0023 -0.1856 -0.9826
vn -0.9352 -0.1844 -0.3022
vn -0.5764 -0.1876 0.7953
vn 0.5782 -0.1907 0.7933
vn 0.5764 0.1876 -0.7953
vn -0.5782 0.1907 -0.7933
vn -0.9331 0.1895 0.3056
vn 0.0023 0.1856 0.9826
vn 0.9352 0.1844 0.3022
vn -0.0032 -0.7934 -0.6086
vn -0.5798 -0.7927 -0.1881
vn -0.3581 -0.7947 0.4902
vn 0.3555 -0.7966 0.4889
vn 0.5748 -0.7958 -0.1902
vn -0.5765 -0.1876 0.7953
usemtl Christmas_Tree
s off
f 1/1/1 2/2/1 3/3/1
f 1/4/2 3/3/2 4/5/2
f 1/6/3 4/7/3 5/8/3
f 1/9/4 5/8/4 6/10/4
f 1/11/5 6/10/5 2/2/5
f 2/2/6 11/12/6 7/13/6
f 3/3/7 7/13/7 8/14/7
f 4/7/8 8/15/8 9/16/8
f 5/8/9 9/16/9 10/17/9
f 6/10/10 10/17/10 11/12/10
f 7/13/11 3/3/11 2/2/11
f 8/14/12 4/5/12 3/3/12
f 9/16/13 5/8/13 4/7/13
f 10/17/14 6/10/14 5/8/14
f 11/12/15 2/2/15 6/10/15
f 12/18/16 8/14/16 7/13/16
f 12/19/17 9/16/17 8/15/17
f 12/20/18 10/17/18 9/16/18
f 12/21/19 11/12/19 10/17/19
f 12/22/20 7/13/20 11/12/20
f 13/23/1 14/24/1 15/25/1
f 13/26/2 15/25/2 16/27/2
f 13/28/3 16/29/3 17/30/3
f 13/31/4 17/30/4 18/32/4
f 13/33/5 18/32/5 14/24/5
f 14/24/6 23/34/6 19/35/6
f 15/25/7 19/35/7 20/36/7
f 16/29/8 20/37/8 21/38/8
f 17/30/21 21/38/21 22/39/21
f 18/32/10 22/39/10 23/34/10
f 19/35/11 15/25/11 14/24/11
f 20/36/12 16/27/12 15/25/12
f 21/38/13 17/30/13 16/29/13
f 22/39/14 18/32/14 17/30/14
f 23/34/15 14/24/15 18/32/15
f 24/40/16 20/36/16 19/35/16
f 24/41/17 21/38/17 20/37/17
f 24/42/18 22/39/18 21/38/18
f 24/43/19 23/34/19 22/39/19
f 24/44/20 19/35/20 23/34/20
f 25/45/1 26/46/1 27/47/1
f 25/48/2 27/47/2 28/49/2
f 25/50/3 28/51/3 29/52/3
f 25/53/4 29/52/4 30/54/4
f 25/55/5 30/54/5 26/46/5
f 26/46/6 35/56/6 31/57/6
f 27/47/7 31/57/7 32/58/7
f 28/51/8 32/59/8 33/60/8
f 29/52/9 33/60/9 34/61/9
f 30/54/10 34/61/10 35/56/10
f 31/57/11 27/47/11 26/46/11
f 32/58/12 28/49/12 27/47/12
f 33/60/13 29/52/13 28/51/13
f 34/61/14 30/54/14 29/52/14
f 35/56/15 26/46/15 30/54/15
f 36/62/16 32/58/16 31/57/16
f 36/63/17 33/60/17 32/59/17
f 36/64/18 34/61/18 33/60/18
f 36/65/19 35/56/19 34/61/19
f 36/66/20 31/57/20 35/56/20
f 37/67/1 38/68/1 39/69/1
f 37/70/2 39/69/2 40/71/2
f 37/72/3 40/73/3 41/74/3
f 37/75/4 41/74/4 42/76/4
f 37/77/5 42/76/5 38/68/5
f 38/68/6 47/78/6 43/79/6
f 39/69/7 43/79/7 44/80/7
f 40/73/8 44/81/8 45/82/8
f 41/74/9 45/82/9 46/83/9
f 42/76/10 46/83/10 47/78/10
f 43/79/11 39/69/11 38/68/11
f 44/80/12 40/71/12 39/69/12
f 45/82/13 41/74/13 40/73/13
f 46/83/14 42/76/14 41/74/14
f 47/78/15 38/68/15 42/76/15
f 48/84/16 44/80/16 43/79/16
f 48/85/17 45/82/17 44/81/17
f 48/86/18 46/83/18 45/82/18
f 48/87/19 47/78/19 46/83/19
f 48/88/20 43/79/20 47/78/20
f 49/89/1 50/90/1 51/91/1
f 49/92/2 51/91/2 52/93/2
f 49/94/3 52/95/3 53/96/3
f 49/97/4 53/96/4 54/98/4
f 49/99/5 54/98/5 50/90/5
f 50/90/6 59/100/6 55/101/6
f 51/91/7 55/101/7 56/102/7
f 52/95/8 56/103/8 57/104/8
f 53/96/21 57/104/21 58/105/21
f 54/98/10 58/105/10 59/100/10
f 55/101/11 51/91/11 50/90/11
f 56/102/12 52/93/12 51/91/12
f 57/104/13 53/96/13 52/95/13
f 58/105/14 54/98/14 53/96/14
f 59/100/15 50/90/15 54/98/15
f 60/106/16 56/102/16 55/101/16
f 60/107/17 57/104/17 56/103/17
f 60/108/18 58/105/18 57/104/18
f 60/109/19 59/100/19 58/105/19
f 60/110/20 55/101/20 59/100/20
f 61/111/1 62/112/1 63/113/1
f 61/114/2 63/113/2 64/115/2
f 61/116/3 64/117/3 65/118/3
f 61/119/4 65/118/4 66/120/4
f 61/121/5 66/120/5 62/112/5
f 62/112/6 71/122/6 67/123/6
f 63/113/7 67/123/7 68/124/7
f 64/117/8 68/125/8 69/126/8
f 65/118/9 69/126/9 70/127/9
f 66/120/10 70/127/10 71/122/10
f 67/123/11 63/113/11 62/112/11
f 68/124/12 64/115/12 63/113/12
f 69/126/13 65/118/13 64/117/13
f 70/127/14 66/120/14 65/118/14
f 71/122/15 62/112/15 66/120/15
f 72/128/16 68/124/16 67/123/16
f 72/129/17 69/126/17 68/125/17
f 72/130/18 70/127/18 69/126/18
f 72/131/19 71/122/19 70/127/19
f 72/132/20 67/123/20 71/122/20
